<?xml version="1.0" encoding="UTF-8"?>
<svg id="_レイヤー_2" data-name="レイヤー 2" xmlns="http://www.w3.org/2000/svg" xmlns:xlink="http://www.w3.org/1999/xlink" viewBox="0 0 574.15 413.67">
  <defs>
    <style>
      .cls-1 {
        fill: url(#_名称未設定グラデーション_21);
      }

      .cls-1, .cls-2, .cls-3 {
        stroke-width: 0px;
      }

      .cls-2 {
        fill: url(#_名称未設定グラデーション_22);
      }

      .cls-3 {
        fill: url(#_名称未設定グラデーション_23);
      }
    </style>
    <linearGradient id="_名称未設定グラデーション_21" data-name="名称未設定グラデーション 21" x1="446.83" y1="187.36" x2="446.83" y2="5.03" gradientUnits="userSpaceOnUse">
      <stop offset="0" stop-color="#fff"/>
      <stop offset="1" stop-color="#b1daf6"/>
    </linearGradient>
    <linearGradient id="_名称未設定グラデーション_23" data-name="名称未設定グラデーション 23" x1="330.67" y1="193.27" x2="330.67" y2="140.25" gradientUnits="userSpaceOnUse">
      <stop offset="0" stop-color="#b1daf6"/>
      <stop offset="1" stop-color="#fff"/>
    </linearGradient>
    <linearGradient id="_名称未設定グラデーション_22" data-name="名称未設定グラデーション 22" x1="170.92" y1="411.78" x2="170.92" y2="145.14" gradientUnits="userSpaceOnUse">
      <stop offset="0" stop-color="#fff" stop-opacity="0"/>
      <stop offset="1" stop-color="#b1daf6"/>
    </linearGradient>
  </defs>
  <g id="_レイヤー_1-2" data-name="レイヤー 1">
    <g>
      <polygon class="cls-1" points="394.95 188.65 319.5 188.65 453.23 48.15 388.51 0 574.15 0 394.95 188.65"/>
      <path class="cls-3" d="m341.85,142.98c-17.07-2.65-32.95-7.94-75.29,0,33.73,9.27,28.44,29.78,52.95,45.67-.02,0,31.08,11.25,75.29,0-28.98-15.22-35.67-42.99-52.95-45.67Z"/>
      <path class="cls-2" d="m341.85,142.98c-11.11-6.62-57.92-7.25-75.29,0C204.72,168.8,0,413.67,0,413.67h75.29S313.53,140.34,341.85,142.98Z"/>
    </g>
  </g>
</svg>