<?xml version="1.0" encoding="UTF-8"?>
<svg id="_レイヤー_2" data-name="レイヤー 2" xmlns="http://www.w3.org/2000/svg" xmlns:xlink="http://www.w3.org/1999/xlink" viewBox="0 0 275.56 166.2">
  <defs>
    <style>
      .cls-1 {
        fill: url(#_名称未設定グラデーション_12-5);
      }

      .cls-1, .cls-2, .cls-3, .cls-4, .cls-5, .cls-6, .cls-7, .cls-8, .cls-9, .cls-10, .cls-11, .cls-12, .cls-13 {
        stroke-width: 0px;
      }

      .cls-2 {
        fill: url(#_名称未設定グラデーション_12-4);
      }

      .cls-3 {
        fill: url(#_名称未設定グラデーション_12-2);
      }

      .cls-4 {
        fill: url(#_名称未設定グラデーション_12-3);
      }

      .cls-5 {
        fill: url(#_名称未設定グラデーション_11-2);
      }

      .cls-6 {
        fill: url(#_名称未設定グラデーション_11-3);
      }

      .cls-7 {
        fill: url(#_名称未設定グラデーション_11);
      }

      .cls-8 {
        fill: url(#_名称未設定グラデーション_12);
      }

      .cls-14 {
        fill: none;
        stroke: #cacaca;
        stroke-linecap: round;
        stroke-linejoin: round;
        stroke-width: .5px;
      }

      .cls-9 {
        fill: #73c09d;
      }

      .cls-10 {
        fill: #59a3d2;
      }

      .cls-11 {
        fill: #3278a7;
      }

      .cls-12 {
        fill: #86ccee;
      }

      .cls-13 {
        fill: #006d83;
      }
    </style>
    <linearGradient id="_名称未設定グラデーション_12" data-name="名称未設定グラデーション 12" x1="201.75" y1="63.55" x2="248.43" y2="63.55" gradientUnits="userSpaceOnUse">
      <stop offset="0" stop-color="#e4e4e4"/>
      <stop offset="1" stop-color="#fff"/>
    </linearGradient>
    <linearGradient id="_名称未設定グラデーション_12-2" data-name="名称未設定グラデーション 12" x1="210.75" y1="45.55" x2="257.43" y2="45.55" xlink:href="#_名称未設定グラデーション_12"/>
    <linearGradient id="_名称未設定グラデーション_11" data-name="名称未設定グラデーション 11" x1="210.78" y1="27.33" x2="257.45" y2="27.33" gradientTransform="translate(468.23 54.65) rotate(180)" gradientUnits="userSpaceOnUse">
      <stop offset="0" stop-color="#fff"/>
      <stop offset="1" stop-color="#e4e4e4"/>
    </linearGradient>
    <linearGradient id="_名称未設定グラデーション_12-3" data-name="名称未設定グラデーション 12" x1="195.45" y1="9.11" x2="222.12" y2="9.11" xlink:href="#_名称未設定グラデーション_12"/>
    <linearGradient id="_名称未設定グラデーション_12-4" data-name="名称未設定グラデーション 12" x1="2.75" x2="49.43" xlink:href="#_名称未設定グラデーション_12"/>
    <linearGradient id="_名称未設定グラデーション_12-5" data-name="名称未設定グラデーション 12" x1="8.75" y1="45.55" x2="35.43" y2="45.55" xlink:href="#_名称未設定グラデーション_12"/>
    <linearGradient id="_名称未設定グラデーション_11-2" data-name="名称未設定グラデーション 11" x1="21.23" x2="67.9" gradientTransform="translate(89.12 54.65) rotate(180)" xlink:href="#_名称未設定グラデーション_11"/>
    <linearGradient id="_名称未設定グラデーション_11-3" data-name="名称未設定グラデーション 11" x1="61.23" y1="9.33" x2="87.9" y2="9.33" gradientTransform="translate(149.12 18.65) rotate(180)" xlink:href="#_名称未設定グラデーション_11"/>
  </defs>
  <g id="_レイヤー_1-2" data-name="レイヤー 1">
    <g>
      <g>
        <path class="cls-12" d="m82.5,158.05c0-12.15,23.06-22,51.5-22s51.5,9.85,51.5,22h-103Z"/>
        <rect class="cls-12" x="77.86" y="154.89" width="112.28" height="11.31"/>
        <path class="cls-12" d="m134,93.05h0c6.07,0,11,4.93,11,11v51h-22v-51c0-6.07,4.93-11,11-11Z"/>
      </g>
      <g>
        <g>
          <path class="cls-10" d="m201.75,54.44h55.69c5.03,0,9.11,4.08,9.11,9.11h0c0,5.03-4.08,9.11-9.11,9.11h-55.69v-18.22h0Z"/>
          <path class="cls-8" d="m201.75,55.35h38.48c4.52,0,8.19,3.67,8.19,8.19h0c0,4.52-3.67,8.19-8.19,8.19h-38.48v-16.38h0Z"/>
          <g>
            <line class="cls-14" x1="201.75" y1="58.33" x2="240.98" y2="58.33"/>
            <line class="cls-14" x1="201.75" y1="62.06" x2="245.2" y2="62.06"/>
            <line class="cls-14" x1="201.75" y1="65.78" x2="245.45" y2="65.78"/>
            <line class="cls-14" x1="201.75" y1="69.5" x2="241.72" y2="69.5"/>
          </g>
        </g>
        <g>
          <path class="cls-13" d="m210.75,36.44h55.69c5.03,0,9.11,4.08,9.11,9.11h0c0,5.03-4.08,9.11-9.11,9.11h-55.69v-18.22h0Z"/>
          <path class="cls-3" d="m210.75,37.35h38.48c4.52,0,8.19,3.67,8.19,8.19h0c0,4.52-3.67,8.19-8.19,8.19h-38.48v-16.38h0Z"/>
          <g>
            <line class="cls-14" x1="210.75" y1="40.33" x2="249.98" y2="40.33"/>
            <line class="cls-14" x1="210.75" y1="44.06" x2="254.2" y2="44.06"/>
            <line class="cls-14" x1="210.75" y1="47.78" x2="254.45" y2="47.78"/>
            <line class="cls-14" x1="210.75" y1="51.5" x2="250.72" y2="51.5"/>
          </g>
        </g>
        <g>
          <path class="cls-10" d="m192.65,18.22h55.69c5.03,0,9.11,4.08,9.11,9.11h0c0,5.03-4.08,9.11-9.11,9.11h-55.69v-18.22h0Z" transform="translate(450.09 54.65) rotate(-180)"/>
          <path class="cls-7" d="m210.78,19.13h38.48c4.52,0,8.19,3.67,8.19,8.19h0c0,4.52-3.67,8.19-8.19,8.19h-38.48v-16.38h0Z" transform="translate(468.23 54.65) rotate(-180)"/>
          <g>
            <line class="cls-14" x1="257.45" y1="22.11" x2="218.23" y2="22.11"/>
            <line class="cls-14" x1="257.45" y1="25.84" x2="214" y2="25.84"/>
            <line class="cls-14" x1="257.45" y1="29.56" x2="213.76" y2="29.56"/>
            <line class="cls-14" x1="257.45" y1="33.29" x2="217.48" y2="33.29"/>
          </g>
        </g>
        <g>
          <path class="cls-9" d="m195.45,0h65.69C266.17,0,270.25,4.08,270.25,9.11h0c0,5.03-4.08,9.11-9.11,9.11h-65.69V0h0Z"/>
          <path class="cls-4" d="m195.45.92h18.48c4.52,0,8.19,3.67,8.19,8.19h0c0,4.52-3.67,8.19-8.19,8.19h-18.48V.92h0Z"/>
          <g>
            <line class="cls-14" x1="195.45" y1="3.9" x2="214.67" y2="3.9"/>
            <line class="cls-14" x1="195.45" y1="7.62" x2="218.89" y2="7.62"/>
            <line class="cls-14" x1="195.45" y1="11.34" x2="219.14" y2="11.34"/>
            <line class="cls-14" x1="195.45" y1="15.07" x2="215.42" y2="15.07"/>
          </g>
        </g>
      </g>
      <g>
        <g>
          <path class="cls-10" d="m2.75,54.44h55.69c5.03,0,9.11,4.08,9.11,9.11h0c0,5.03-4.08,9.11-9.11,9.11H2.75v-18.22h0Z"/>
          <path class="cls-2" d="m2.75,55.35h38.48c4.52,0,8.19,3.67,8.19,8.19h0c0,4.52-3.67,8.19-8.19,8.19H2.75v-16.38h0Z"/>
          <g>
            <line class="cls-14" x1="2.75" y1="58.33" x2="41.98" y2="58.33"/>
            <line class="cls-14" x1="2.75" y1="62.06" x2="46.2" y2="62.06"/>
            <line class="cls-14" x1="2.75" y1="65.78" x2="46.45" y2="65.78"/>
            <line class="cls-14" x1="2.75" y1="69.5" x2="42.72" y2="69.5"/>
          </g>
        </g>
        <g>
          <path class="cls-9" d="m8.75,36.44h65.69c5.03,0,9.11,4.08,9.11,9.11h0c0,5.03-4.08,9.11-9.11,9.11H8.75v-18.22h0Z"/>
          <path class="cls-1" d="m8.75,37.35h18.48c4.52,0,8.19,3.67,8.19,8.19h0c0,4.52-3.67,8.19-8.19,8.19H8.75v-16.38h0Z"/>
          <g>
            <line class="cls-14" x1="8.75" y1="40.33" x2="27.98" y2="40.33"/>
            <line class="cls-14" x1="8.75" y1="44.06" x2="32.2" y2="44.06"/>
            <line class="cls-14" x1="8.75" y1="47.78" x2="32.45" y2="47.78"/>
            <line class="cls-14" x1="8.75" y1="51.5" x2="28.72" y2="51.5"/>
          </g>
        </g>
        <g>
          <path class="cls-10" d="m3.09,18.22h55.69c5.03,0,9.11,4.08,9.11,9.11h0c0,5.03-4.08,9.11-9.11,9.11H3.09v-18.22h0Z" transform="translate(70.99 54.65) rotate(-180)"/>
          <path class="cls-5" d="m21.23,19.13h38.48c4.52,0,8.19,3.67,8.19,8.19h0c0,4.52-3.67,8.19-8.19,8.19H21.23v-16.38h0Z" transform="translate(89.12 54.65) rotate(-180)"/>
          <g>
            <line class="cls-14" x1="67.9" y1="22.11" x2="28.67" y2="22.11"/>
            <line class="cls-14" x1="67.9" y1="25.84" x2="24.45" y2="25.84"/>
            <line class="cls-14" x1="67.9" y1="29.56" x2="24.2" y2="29.56"/>
            <line class="cls-14" x1="67.9" y1="33.29" x2="27.93" y2="33.29"/>
          </g>
        </g>
        <g>
          <path class="cls-11" d="m23.09.22h55.69c5.03,0,9.11,4.08,9.11,9.11h0c0,5.03-4.08,9.11-9.11,9.11H23.09V.22h0Z" transform="translate(110.99 18.65) rotate(-180)"/>
          <path class="cls-6" d="m61.23,1.13h18.48c4.52,0,8.19,3.67,8.19,8.19h0c0,4.52-3.67,8.19-8.19,8.19h-18.48V1.13h0Z" transform="translate(149.12 18.65) rotate(-180)"/>
          <g>
            <line class="cls-14" x1="87.9" y1="4.11" x2="68.67" y2="4.11"/>
            <line class="cls-14" x1="87.9" y1="7.84" x2="64.45" y2="7.84"/>
            <line class="cls-14" x1="87.9" y1="11.56" x2="64.2" y2="11.56"/>
            <line class="cls-14" x1="87.9" y1="15.29" x2="67.93" y2="15.29"/>
          </g>
        </g>
      </g>
      <rect class="cls-12" x="18.5" y="92.05" width="231" height="6"/>
      <g>
        <path class="cls-12" d="m72,77.81c0,5.45-16.12,9.87-36,9.87S0,83.26,0,77.81h72Z"/>
        <path class="cls-12" d="m268,77.91c0,5.45-16.12,9.87-36,9.87s-36-4.42-36-9.87h72Z"/>
      </g>
    </g>
  </g>
</svg>