<svg width="8" height="141" viewBox="0 0 8 141" fill="none" xmlns="http://www.w3.org/2000/svg">
<g clip-path="url(#clip0_6_2)">
<path d="M1.73 1.49C1.58 1.57 1.46 1.67 1.37 1.8C1.28 1.93 1.21 2.08 1.16 2.25C1.11 2.42 1.09 2.6 1.09 2.79C1.09 2.92 1.09 3.05 1.12 3.2C1.14 3.34 1.18 3.48 1.24 3.61C1.3 3.74 1.38 3.84 1.49 3.92C1.59 4 1.73 4.05 1.89 4.05C2.06 4.05 2.2 3.99 2.31 3.88C2.42 3.77 2.51 3.62 2.58 3.44C2.65 3.26 2.71 3.06 2.77 2.83C2.82 2.6 2.88 2.37 2.95 2.14C3.01 1.9 3.08 1.67 3.17 1.44C3.26 1.21 3.37 1.01 3.51 0.83C3.65 0.65 3.82 0.5 4.03 0.39C4.24 0.28 4.49 0.22 4.78 0.22C5.11 0.22 5.4 0.29 5.64 0.43C5.88 0.57 6.09 0.76 6.25 0.98C6.41 1.21 6.53 1.47 6.61 1.75C6.69 2.03 6.73 2.33 6.73 2.61C6.73 2.95 6.69 3.27 6.62 3.58C6.54 3.89 6.42 4.16 6.25 4.4C6.08 4.64 5.87 4.83 5.61 4.97C5.35 5.11 5.03 5.18 4.66 5.18V3.81C4.85 3.8 5.01 3.76 5.14 3.69C5.27 3.62 5.36 3.53 5.44 3.41C5.51 3.3 5.56 3.17 5.59 3.02C5.62 2.87 5.64 2.71 5.64 2.54C5.64 2.43 5.63 2.31 5.6 2.2C5.58 2.09 5.53 1.98 5.47 1.89C5.41 1.8 5.33 1.72 5.24 1.66C5.15 1.6 5.04 1.57 4.9 1.57C4.77 1.57 4.67 1.59 4.59 1.64C4.51 1.69 4.44 1.78 4.37 1.92C4.3 2.06 4.24 2.26 4.17 2.5C4.1 2.75 4.02 3.08 3.92 3.48C3.9 3.6 3.85 3.77 3.79 3.98C3.73 4.19 3.63 4.4 3.49 4.61C3.35 4.82 3.17 5 2.94 5.15C2.71 5.3 2.41 5.38 2.05 5.38C1.76 5.38 1.48 5.32 1.23 5.21C0.98 5.1 0.76 4.93 0.58 4.7C0.4 4.48 0.25 4.2 0.15 3.86C0.05 3.53 0 3.14 0 2.7C0 2.35 0.04 2 0.13 1.67C0.22 1.34 0.35 1.04 0.54 0.79C0.73 0.54 0.96 0.33 1.25 0.18C1.54 0.07 1.88 0 2.28 0V1.37C2.06 1.37 1.88 1.41 1.73 1.49Z" fill="#2E3190"/>
<path d="M4.86001 12.17C4.99001 12.09 5.11001 11.98 5.22001 11.85C5.32001 11.72 5.40001 11.58 5.46001 11.42C5.52001 11.26 5.54001 11.09 5.54001 10.92C5.54001 10.6 5.48001 10.33 5.36001 10.11C5.24001 9.89001 5.07001 9.71001 4.87001 9.57001C4.66001 9.43001 4.43001 9.33001 4.16001 9.27001C3.90001 9.21001 3.62001 9.18001 3.34001 9.18001C3.06001 9.18001 2.81001 9.21001 2.55001 9.27001C2.30001 9.33001 2.07001 9.43001 1.86001 9.57001C1.66001 9.71001 1.49001 9.89001 1.37001 10.11C1.25001 10.33 1.19001 10.6 1.19001 10.92C1.19001 11.35 1.32001 11.69 1.59001 11.93C1.85001 12.17 2.20001 12.32 2.63001 12.38V13.75C2.23001 13.71 1.87001 13.62 1.54001 13.47C1.22001 13.32 0.94001 13.12 0.71001 12.88C0.48001 12.63 0.31001 12.35 0.19001 12.02C0.0700098 11.69 0.0100098 11.33 0.0100098 10.93C0.0100098 10.44 0.0900098 10 0.27001 9.60001C0.44001 9.21001 0.68001 8.88001 0.98001 8.60001C1.28001 8.33001 1.63001 8.12001 2.04001 7.98001C2.44001 7.84001 2.88001 7.76001 3.35001 7.76001C3.82001 7.76001 4.28001 7.83001 4.69001 7.98001C5.10001 8.12001 5.46001 8.33001 5.77001 8.60001C6.08001 8.87001 6.32001 9.20001 6.49001 9.60001C6.66001 9.99001 6.75001 10.43 6.75001 10.93C6.75001 11.28 6.70001 11.62 6.60001 11.93C6.50001 12.24 6.35001 12.53 6.15001 12.78C5.95001 13.03 5.71001 13.23 5.43001 13.4C5.15001 13.57 4.81001 13.66 4.44001 13.71V12.34C4.60001 12.32 4.75001 12.26 4.89001 12.18L4.86001 12.17Z" fill="#2E3190"/>
<path d="M6.56989 19.98C6.56989 20.27 6.51989 20.53 6.42989 20.76C6.33989 20.99 6.20989 21.19 6.04989 21.35C5.88989 21.51 5.69989 21.64 5.48989 21.73C5.27989 21.82 5.04989 21.86 4.79989 21.86C4.41989 21.86 4.08989 21.78 3.81989 21.62C3.54989 21.46 3.32989 21.2 3.18989 20.84H3.16989C3.11989 21.01 3.04989 21.16 2.94989 21.27C2.84989 21.38 2.72989 21.48 2.59989 21.55C2.46989 21.62 2.31989 21.67 2.14989 21.71C1.97989 21.75 1.82989 21.77 1.65989 21.78C1.55989 21.78 1.43989 21.79 1.29989 21.8C1.15989 21.8 1.01989 21.82 0.879893 21.83C0.739893 21.84 0.599893 21.87 0.469893 21.9C0.339893 21.93 0.229893 21.98 0.139893 22.05V20.64C0.339893 20.56 0.589893 20.51 0.869893 20.5C1.14989 20.48 1.41989 20.46 1.67989 20.42C2.01989 20.37 2.25989 20.27 2.41989 20.11C2.57989 19.95 2.64989 19.7 2.64989 19.35V17.94H0.139893V16.53H6.56989V19.99V19.98ZM3.65989 19.48C3.65989 19.8 3.72989 20.05 3.87989 20.21C4.01989 20.37 4.25989 20.45 4.57989 20.45C4.89989 20.45 5.11989 20.37 5.25989 20.21C5.39989 20.05 5.46989 19.81 5.46989 19.48V17.93H3.65989V19.48Z" fill="#2E3190"/>
<path d="M4.66999 24.75C5.07999 24.89 5.43999 25.1 5.74999 25.37C6.05999 25.64 6.29999 25.97 6.46999 26.37C6.63999 26.76 6.72999 27.2 6.72999 27.7C6.72999 28.2 6.63999 28.64 6.46999 29.03C6.29999 29.42 6.05999 29.75 5.74999 30.02C5.43999 30.29 5.08999 30.5 4.66999 30.64C4.25999 30.78 3.80999 30.86 3.32999 30.86C2.84999 30.86 2.42999 30.79 2.01999 30.64C1.60999 30.5 1.25999 30.29 0.95999 30.02C0.65999 29.75 0.41999 29.42 0.24999 29.03C0.0799902 28.64 -0.0100098 28.2 -0.0100098 27.7C-0.0100098 27.2 0.0699902 26.77 0.24999 26.37C0.41999 25.98 0.65999 25.65 0.95999 25.37C1.25999 25.1 1.60999 24.89 2.01999 24.75C2.41999 24.61 2.85999 24.53 3.32999 24.53C3.79999 24.53 4.25999 24.6 4.66999 24.75ZM2.54999 26.04C2.29999 26.1 2.06999 26.2 1.85999 26.34C1.65999 26.48 1.48999 26.66 1.36999 26.88C1.24999 27.1 1.18999 27.37 1.18999 27.69C1.18999 28.01 1.24999 28.28 1.36999 28.5C1.48999 28.72 1.65999 28.9 1.85999 29.04C2.05999 29.18 2.28999 29.28 2.54999 29.34C2.79999 29.4 3.06999 29.43 3.33999 29.43C3.60999 29.43 3.89999 29.4 4.15999 29.34C4.41999 29.28 4.65999 29.18 4.86999 29.04C5.07999 28.9 5.23999 28.72 5.35999 28.5C5.47999 28.28 5.53999 28.01 5.53999 27.69C5.53999 27.37 5.47999 27.1 5.35999 26.88C5.23999 26.66 5.06999 26.48 4.86999 26.34C4.65999 26.2 4.42999 26.1 4.15999 26.04C3.89999 25.98 3.61999 25.95 3.33999 25.95C3.05999 25.95 2.80999 25.98 2.54999 26.04Z" fill="#2E3190"/>
<path d="M6.56989 35.0301H1.32989V38.1601H0.139893V33.6201H6.56989V35.0301Z" fill="#2E3190"/>
<path d="M6.56989 42.17H1.32989V45.3H0.139893V40.76H6.56989V42.17Z" fill="#2E3190"/>
<path d="M1.75 56.1001V138.1L6.75 127.6" stroke="#2E3190" stroke-miterlimit="10"/>
</g>
<defs>
<clipPath id="clip0_6_2">
<rect width="7.2" height="140.31" fill="white"/>
</clipPath>
</defs>
</svg>
